<?xml version="1.0" encoding="UTF-8"?>
<svg viewBox="0 0 192 192">
	<g>
		<path id="Shape" d="M71,171.5c3.68,1.914,7.597,3.33,11.65,4.21c-0.688-0.362-1.356-0.763-2-1.2c-2.43-1.619-3-5.63-1.72-13     c0.47-2.729,1.1-5.439,1.64-7.49c-0.36,0.302-0.765,0.545-1.2,0.721L69.08,159c-2.447,1.008-5.249-0.148-6.27-2.59l-1.08-2.58     c-1.004-2.443,0.147-5.24,2.58-6.27l10.25-4.28c2.447-1.005,5.246,0.146,6.28,2.579l1.07,2.591     c0.102,0.231,0.179,0.472,0.23,0.72c1.052-2.297,1.437-4.844,1.11-7.35c-0.22-2.37-0.27-5.801,1.9-8.18     c1.167-1.22,2.689-2.039,4.35-2.341c-0.867-0.393-1.703-0.851-2.5-1.37c-5-3.24-11.86-3-11.86-3H44.23     C44.23,141,55.67,163.2,71,171.5z M59.4,131.12H75c2.651,0,4.8,2.149,4.8,4.8s-2.149,4.8-4.8,4.8H59.38     c-2.651,0-4.8-2.149-4.8-4.8s2.149-4.8,4.8-4.8H59.4z"/>
		<path id="Shape_1_" d="M81.81,172.72c10.94,7.32,29.32,4.13,39.209-1.22c15.311-8.3,26.75-30.52,26.75-44.53h-30.91     c0,0-6.899-0.27-11.859,3c-3.582,2.259-7.77,3.368-12,3.181c-6.85,0-8.08,3.39-7.61,8.51c0.51,5.38-1.06,7.689-1.86,9.82     C82.83,153.32,78.11,170.25,81.81,172.72z M117.05,131.12h15.57c2.651,0,4.8,2.149,4.8,4.8s-2.148,4.8-4.8,4.8h-15.57     c-1.715,0-3.3-0.915-4.157-2.399c-0.857-1.485-0.857-3.315,0-4.801C113.75,132.035,115.335,131.12,117.05,131.12z M110.05,148.46     l1.07-2.59c1.034-2.435,3.833-3.585,6.28-2.58l10.25,4.28c2.433,1.029,3.584,3.826,2.58,6.27l-1.08,2.58     c-1.021,2.441-3.824,3.599-6.271,2.59l-10.25-4.279c-2.426-1.037-3.56-3.838-2.54-6.271H110.05z M101.65,156.08l1.57-0.92     c2.29-1.329,5.224-0.561,6.569,1.72l4.33,7.41c1.329,2.29,0.561,5.224-1.72,6.569l-1.57,0.921     c-2.289,1.321-5.215,0.555-6.561-1.72l-4.27-7.42c-1.327-2.281-0.574-5.205,1.689-6.561H101.65z M85.6,163.08     c0-0.952,0.378-1.865,1.051-2.539c0.673-0.673,1.586-1.051,2.539-1.051h2.42c0.951,0,1.863,0.379,2.535,1.052     c0.671,0.674,1.048,1.587,1.045,2.538v4.35c0.003,0.951-0.374,1.865-1.045,2.538c-0.672,0.674-1.584,1.052-2.535,1.052h-2.42     c-0.952,0-1.865-0.378-2.539-1.051c-0.673-0.674-1.051-1.586-1.051-2.539V163.08z"/>
		<rect id="Rectangle-path" x="93.5" y="54.27" width="5.01" height="72.69"/>
		<path id="Rectangle-path_1_" d="M106.63,83.17v4.03c0,1.193-0.967,2.16-2.159,2.16H87.53c-1.193,0-2.16-0.967-2.16-2.16v-4.03     c0-1.193,0.967-2.16,2.16-2.16h16.941C105.663,81.01,106.63,81.977,106.63,83.17z"/>
		<path id="Rectangle-path_2_" d="M98.01,67.2h-4.03c-1.193,0-2.16-0.967-2.16-2.16V17.16c0-1.193,0.967-2.16,2.16-2.16h4.03     c1.193,0,2.16,0.967,2.16,2.16v47.88C100.17,66.233,99.203,67.2,98.01,67.2z"/>
	</g>
</svg>