<?xml version="1.0" encoding="UTF-8"?>
<svg viewBox="0 0 192 192">
	<g>
		<path id="Shape" d="M95.54,15c-2.74,0-4.84,2.19-5.94,4.2c-0.82,1.51-1.62,3.4-3.17,4.45c0,0-6.55,3.21-8.93,4.71     c-3.174,1.886-5.824,4.537-7.71,7.71c-2.11,3.8-2.63,7.09-4.12,9.39c-1.791,2.772-3.734,5.442-5.82,8     c-1.111,1.219-1.069,3.096,0.096,4.264c1.165,1.167,3.042,1.214,4.264,0.106c1.58-1.57,7.42-7,8.74-10     c4.12-9.29,12.32-16.26,22.59-16.26c13.399,0,24.271,11.47,24.271,25.62S106.4,82.82,95,82.82     c-9.704-0.013-17.672,7.668-18.014,17.366c-0.342,9.698,7.065,17.922,16.746,18.592s18.15-6.455,19.147-16.107     c18.45-19,20.271-29.6,20.271-42.85C133.061,35.07,116.26,15,95.54,15z M95.54,24.7c-2.077,0-3.76-1.684-3.76-3.76     s1.684-3.76,3.76-3.76c2.077,0,3.76,1.683,3.76,3.76c0.003,0.998-0.393,1.956-1.099,2.662     C97.496,24.308,96.538,24.703,95.54,24.7z M94.91,112.7c-6.594,0-11.94-5.346-11.94-11.94c0-6.594,5.346-11.94,11.94-11.94     c6.594,0,11.939,5.346,11.939,11.94c0.008,3.173-1.246,6.219-3.485,8.466s-5.281,3.512-8.454,3.515V112.7z"/>
		<rect id="Rectangle-path" x="90.59" y="107.1" width="10.811" height="69.9"/>
	</g>
</svg>