<?xml version="1.0" encoding="UTF-8"?>
<svg viewBox="0 0 192 192">
	<g id="sport">
		<path id="Shape" d="M26.73,136.21c-0.478-0.489-0.478-1.271,0-1.76l5.71-5.89c0.096-0.098,0.208-0.179,0.33-0.24     l1-0.521l16-7.7l1.12-1l4-4.1c0.234-0.235,0.553-0.367,0.885-0.367s0.65,0.132,0.885,0.367c0.479,0.492,0.479,1.277,0,1.77     l-4,4.131l-0.06,0.05l-1.29,1.18c-0.089,0.081-0.19,0.149-0.3,0.2L34.87,130l-0.78,0.41l-5.58,5.75     c-0.234,0.234-0.553,0.367-0.885,0.367s-0.65-0.133-0.885-0.367L26.73,136.21z"/>
		<path id="Shape_1_" d="M63.55,148.141c6.23-7.461,13.8-17,14.5-20.25c0.508-3.118-0.264-6.309-2.14-8.851     c-1.68-2.548-3.992-4.614-6.71-6c-5-2.44-13.54-1.24-14.5-1.09c-1.879,0.288-3.171,2.04-2.89,3.92c0,0.13,0.05,0.25,0.08,0.37     l2.1-2.17c0.961-0.994,2.546-1.021,3.54-0.061c0.994,0.961,1.021,2.546,0.06,3.54l-1.07,1.11c2.65-0.311,7.47-0.49,9.67,0.58     c3.14,1.52,5.44,5.17,5.14,7.06c-1.71,4.23-23.89,31.32-31.89,37.39c-2.42,1.841-3.73,1.44-4.16,1.311     c-2.18-0.66-4-3.84-4.65-5.7l-0.28-0.78c-1.68-4.779-4.12-11.729-1-21.459c-0.977,0.96-2.543,0.96-3.52,0     c-0.956-0.979-0.956-2.541,0-3.521l4.23-4.36c-0.817-0.735-1.937-1.035-3.013-0.809c-1.076,0.229-1.978,0.955-2.427,1.959     c-6.45,14.33-2.75,24.83-0.76,30.48l0.26,0.76c0.965,2.608,2.456,4.99,4.38,7c1.323,1.387,2.974,2.418,4.8,3     c2.32,0.71,6,0.859,10.32-2.42C48.28,165.67,57,156,63.55,148.141z"/>
		<path id="Shape_2_" d="M170,39.34l0.061-0.16c2.66-6.68-0.42-12.36-8.67-16c-10.75-4.75-24.951-3.17-28-2     c-2.851,1.08-5.351,5-6.601,7.26c-0.541,0.983-0.614,2.157-0.2,3.2l2.9-4.42c0.356-0.561,0.928-0.951,1.58-1.08     c0.651-0.139,1.331-0.013,1.89,0.35l3,1.94l0.261-0.25c2.27-0.6,13.779-1.8,22.159,1.9c6.17,2.73,5.261,5,4.72,6.34l-0.1,0.26     c-0.92,2.41-6.609,9.95-14.55,18.39c-8.5,9.05-16.32,15.69-20.91,17.77c-3.181,1.45-4.479,0.41-5,0     c-2.75-2.2-3.94-8.85-3.101-12.9c0.086-0.456,0.086-0.924,0-1.38l-1.049,1.61c-0.366,0.557-0.938,0.945-1.591,1.08     c-0.649,0.139-1.327,0.009-1.88-0.36l-3-1.94c-0.891,5.2,0.08,14.08,4.891,18.88c0.31,0.31,0.629,0.6,1,0.88     c4.689,3.75,10,2.21,12.77,1C143.21,74,167.25,46.61,170,39.34z"/>
		<path id="Rectangle-path" d="M112.146,56.033l18.421-28.172c0.378-0.578,1.152-0.74,1.73-0.362l3.155,2.063     c0.577,0.377,0.739,1.152,0.362,1.73l-18.422,28.172c-0.377,0.578-1.152,0.74-1.73,0.362l-3.154-2.063     C111.93,57.386,111.768,56.611,112.146,56.033z"/>
		<rect id="Rectangle-path_1_" x="92.032" y="62.366" transform="matrix(-0.7071 -0.7071 0.7071 -0.7071 94.9319 232.5274)" width="7.19" height="68.47"/>
	</g>
</svg>