<?xml version="1.0" encoding="UTF-8"?>
<svg viewBox="0 0 512 512">
    <g id="ice">
        <path d="M381.076,94.179A299.888,299.888,0,0,0,201.834,212.8l-85.028,119.04,32.176,10.726,69.673-95.518a315.042,315.042,0,0,1,188.2-125.277L401.5,89.641Z"/>
        <path d="M447.287,72.9,416.95,85.036,422.777,120H448a8.026,8.026,0,0,1,1.569.155L480,126.241V92.529ZM452,112a12,12,0,1,1,12-12A12.013,12.013,0,0,1,452,112Z"/>
        <path d="M152,360.435l-14.976-4.993-29.952-9.984L36.152,444.751A22.292,22.292,0,0,0,54.292,480h61.179l5.247-8.747A26.2,26.2,0,0,1,114.5,472h-8.322a26.176,26.176,0,0,1-21.3-41.39c.04-.053.079-.108.119-.161l44.615-59.261a8,8,0,0,1,7.96-3.033,68.074,68.074,0,0,0,56.613-14.12l-.963-.481A44.34,44.34,0,0,1,152,360.435ZM60,472a12,12,0,1,1,12-12A12.013,12.013,0,0,1,60,472Z"/>
        <path d="M438.806,136,461,153.753a8.38,8.38,0,0,1,.659.59l8,8a8,8,0,0,1,1.5,9.235L464.944,184l6.211,12.422a8,8,0,0,1,0,7.156L464.944,216l6.211,12.422a8,8,0,0,1,0,7.156L464.944,248l6.211,12.422a8,8,0,0,1,0,7.156L464.944,280l6.211,12.422a8,8,0,0,1,.273,6.549l-7.18,17.951,4.1-2.461A24.119,24.119,0,0,0,480,293.882V142.559L447.208,136Z"/>
        <path d="M436.452,59.51l13.522-8.555A79.373,79.373,0,0,0,401.94,16.239l-3.88,15.522A63.441,63.441,0,0,1,436.452,59.51Z"/>
        <path d="M156.011,394.751a31.773,31.773,0,0,1-24.138-3.564l-8.2,13.738a47.678,47.678,0,0,0,24.5,6.8,48.268,48.268,0,0,0,11.716-1.452l10.048-2.511-3.88-15.522Z"/>
    </g>
</svg>
