<?xml version="1.0" encoding="UTF-8"?>
<svg viewBox="0 0 192 192">
	<g id="bouldering">
		<rect id="Rectangle-path" x="57.73" y="87.234" transform="matrix(0.9435 -0.3315 0.3315 0.9435 -28.1085 26.295)" width="10.61" height="16.638"/>
		<path id="Shape" d="M76,52.76c2.941-1.72,4.555-5.043,4.089-8.419c-0.466-3.375-2.92-6.137-6.217-6.996     c-3.297-0.859-6.787,0.354-8.841,3.071c-2.054,2.718-2.268,6.407-0.541,9.344C66.843,53.762,71.992,55.104,76,52.76z"/>
		<path id="Shape_1_" d="M40.56,0.1l8.64,7.23c3.31,2.73,8.24,7.43,10.56,8.81c5.59,3.32,11.31,6.69,17.67,8.07     c3.28,0.71,6.75,0.9,9.72,2.45c5.48,2.86,7.52,9.14,10.2,14.92L84,55.88L64.5,58.5l-4.76-9.08l2-20.91l-8.3,0.92l-2.31,21.94     l21.38,42.5L91.74,111.1L85,132.48l7.38,2.608l10.31-27.83L89.27,95.1l19.07,0.16l23.141,15.67c1.899,4.45,5.299,8.471,7,13.12     c0.611,1.875,1.08,3.794,1.399,5.74c1.101,5.79,2.16,15.71,3,22.12l4.851,40h44.17V0.1H40.56z M131.07,98.74L110.8,83.11     l-22.38,0.07l-9.68-17.42l10.53-2.49l12.39-14.62c0.549,0.624,1.146,1.203,1.79,1.73c3.71,3,8.86,4,12.17,7.47     c2.78,2.89,3.79,7,5.69,10.55c3.648,6.8,10.869,12,11.56,19.74C133.189,91.73,132,95.22,131.07,98.74z"/>
	</g>
</svg>